<?xml version="1.0" encoding="UTF-8"?>
<svg version="1.1" xmlns="http://www.w3.org/2000/svg" width="512" height="512">
<path d="M0 0 C1.34832599 1.28748179 2.69353591 2.57822457 4.03857422 3.86914062 C8.38321621 7.56405519 10.99254046 8.08011448 16.66357422 7.68164062 C18.78612959 7.43068799 20.90447927 7.15514068 23.0234375 6.87548828 C61.59789335 2.73828924 101.19603501 14.85092474 131.29248047 39.02539062 C145.98391411 51.11183026 158.23145895 64.5407004 168.41357422 80.61914062 C168.81850098 81.25835449 169.22342773 81.89756836 169.640625 82.55615234 C190.71172377 116.44557533 198.2281966 159.66825133 189.41357422 198.61914062 C185.2611718 215.66826207 178.77103277 238.30507925 165.96630859 251.05615234 C161.08907356 256.10200036 161.08907356 256.10200036 159.41192627 262.68969727 C160.33374151 268.45764061 162.53773574 273.83291539 164.66357422 279.24414062 C165.26275313 280.88539801 165.856553 282.52862962 166.44482422 284.17382812 C167.57085683 287.30335746 168.72075257 290.4219837 169.89575195 293.53344727 C175.34446599 308.0541086 175.34446599 308.0541086 173.41357422 314.61914062 C171.59018369 317.32481689 170.33899985 319.15642781 167.41357422 320.61914062 C159.85205421 321.19548029 154.26247679 319.52467097 147.24560547 316.83007812 C145.1147962 316.04608777 142.98393529 315.26223775 140.85302734 314.47851562 C137.52649445 313.23491509 134.20236021 311.98519273 130.87963867 310.73144531 C127.65294747 309.51974329 124.41866281 308.33036037 121.18310547 307.14257812 C120.19236526 306.76040131 119.20162506 306.37822449 118.18086243 305.98446655 C112.7120769 303.9435852 112.7120769 303.9435852 106.99291992 304.28833008 C106.14173584 304.72749756 105.29055176 305.16666504 104.41357422 305.61914062 C103.71796387 305.91022705 103.02235352 306.20131348 102.30566406 306.5012207 C101.66838379 306.79407959 101.03110352 307.08693848 100.37451172 307.38867188 C88.95188361 312.50406627 77.67546432 316.11971458 65.41357422 318.61914062 C63.64433594 318.98845703 63.64433594 318.98845703 61.83935547 319.36523438 C22.68936548 325.95843826 -20.81606422 317.04558203 -53.51757812 294.27441406 C-58.05361543 290.96335253 -62.6105736 287.59499281 -66.58642578 283.61914062 C-69.37827161 283.63711388 -72.06040684 283.76786868 -74.83642578 283.99414062 C-76.48989927 284.10481905 -78.14355068 284.21286927 -79.79736328 284.31835938 C-81.02471191 284.39836182 -81.02471191 284.39836182 -82.27685547 284.47998047 C-108.47025156 286.05822949 -139.55858877 282.05797594 -162.4230957 268.29321289 C-168.78248785 266.31168917 -175.92752209 270.00538588 -181.86767578 272.21679688 C-183.86368802 272.94293243 -185.85978435 273.66883688 -187.85595703 274.39453125 C-190.97771177 275.5384535 -194.09808296 276.68594729 -197.21679688 277.83813477 C-200.24282537 278.9531755 -203.27360997 280.05441699 -206.30517578 281.15429688 C-207.23140747 281.50114029 -208.15763916 281.8479837 -209.11193848 282.20533752 C-214.08998487 284.00362851 -218.21167528 285.18393475 -223.58642578 284.61914062 C-226.94735281 282.90697025 -228.98851494 281.55500108 -231.02392578 278.36914062 C-232.43385303 271.47616298 -229.84573911 264.75172449 -227.60986328 258.29882812 C-227.01579778 256.52940277 -226.42205739 254.75986824 -225.82861328 252.99023438 C-224.89410029 250.23248556 -223.95531144 247.47632176 -223.01025391 244.72216797 C-222.09424837 242.04318505 -221.19492614 239.35903624 -220.29736328 236.67382812 C-220.01097992 235.8549411 -219.72459656 235.03605408 -219.42953491 234.19235229 C-217.91483939 229.62939951 -217.15841602 226.38139126 -218.58642578 221.61914062 C-219.96110664 219.41446377 -221.35760136 217.38519138 -222.89892578 215.30664062 C-240.9508912 189.47880105 -250.2934919 158.73892214 -250.02392578 127.36914062 C-250.0208844 126.61077911 -250.01784302 125.8524176 -250.01470947 125.07107544 C-249.94097662 112.57892807 -248.99262968 100.69638869 -245.58642578 88.61914062 C-245.37211914 87.84908691 -245.1578125 87.0790332 -244.93701172 86.28564453 C-238.43414676 63.65813552 -227.10088796 43.31401371 -211.58642578 25.61914062 C-210.88130859 24.79285156 -210.17619141 23.9665625 -209.44970703 23.11523438 C-185.8283556 -3.98358711 -153.81906653 -21.68857719 -118.58642578 -28.38085938 C-117.40306641 -28.60644531 -116.21970703 -28.83203125 -115.00048828 -29.06445312 C-77.12420395 -35.12633086 -29.6027855 -25.76690594 0 0 Z M-190.98876953 36.04882812 C-217.01254577 63.94777981 -228.69440059 98.97692494 -227.71386719 136.73046875 C-226.51938564 163.80538391 -214.71710517 190.7293845 -197.65039062 211.49682617 C-194.36658653 215.67417223 -192.75498707 218.71756433 -193.13208008 224.09765625 C-194.08604546 229.39188221 -195.83193294 234.420337 -197.58642578 239.49414062 C-198.34008347 241.71946771 -199.09025623 243.94597904 -199.83642578 246.17382812 C-200.17158203 247.14819824 -200.50673828 248.12256836 -200.85205078 249.12646484 C-201.72772765 251.66565844 -201.72772765 251.66565844 -201.58642578 254.61914062 C-195.88112588 253.16995396 -190.28832168 251.57700176 -184.76220703 249.54101562 C-183.79605469 249.18523437 -182.82990234 248.82945312 -181.83447266 248.46289062 C-179.86201436 247.72797602 -177.8932737 246.98301254 -175.92822266 246.22851562 C-168.01773618 243.34619503 -163.02138588 242.91054845 -155.21142578 246.50976562 C-153.6659265 247.28866535 -152.1243814 248.07544966 -150.58642578 248.86914062 C-130.5445359 258.73982018 -110.84289091 262.27877241 -88.58642578 261.61914062 C-90.02807266 258.41900141 -91.91313148 255.62520693 -93.91162109 252.74829102 C-117.42328061 218.75707327 -125.72935873 177.40901208 -118.61767578 136.69335938 C-113.18671414 108.7788631 -101.64464763 81.94619841 -82.58642578 60.61914062 C-81.74595703 59.6471875 -80.90548828 58.67523438 -80.03955078 57.67382812 C-63.52965206 38.84161148 -41.65306156 24.0006008 -17.58642578 16.61914062 C-32.05775442 -0.07854626 -63.17152593 -6.23865646 -84.13818359 -8.03710938 C-125.21123921 -10.87585188 -162.59803772 7.33494978 -190.98876953 36.04882812 Z M1.41357422 100.61914062 C-7.17672546 111.98106005 -10.86052473 123.73363506 -9.18408203 138.05664062 C-6.81360709 149.95109478 -0.91672722 158.89365103 8.41357422 166.61914062 C9.07357422 166.61914062 9.73357422 166.61914062 10.41357422 166.61914062 C10.41357422 167.27914062 10.41357422 167.93914062 10.41357422 168.61914062 C9.85412109 168.74289062 9.29466797 168.86664063 8.71826172 168.99414062 C-12.46103387 174.44219094 -29.64658758 190.68496004 -40.61376953 209.00585938 C-44.23789723 214.51394564 -44.23789723 214.51394564 -45.39916992 220.69287109 C-44.75868241 222.73962982 -44.75868241 222.73962982 -42.91235352 223.62402344 C-42.2053833 223.85444336 -41.49841309 224.08486328 -40.77001953 224.32226562 C-40.00625 224.58007812 -39.24248047 224.83789062 -38.45556641 225.10351562 C-37.2519043 225.4825 -37.2519043 225.4825 -36.02392578 225.86914062 C-35.21761719 226.13726562 -34.41130859 226.40539062 -33.58056641 226.68164062 C-31.58731511 227.34212626 -29.58743715 227.98255164 -27.58642578 228.61914062 C-27.06435547 227.60335937 -26.54228516 226.58757812 -26.00439453 225.54101562 C-16.43968822 207.44222548 -4.44133188 195.33585607 15.41357422 188.61914062 C34.2745023 183.07442859 54.88023591 184.33394771 72.41357422 193.61914062 C86.86257614 202.60307788 95.06380738 213.66107244 102.41357422 228.61914062 C109.02600144 226.79692686 115.21878093 224.56690458 121.41357422 221.61914062 C116.10004063 201.95906635 99.4293765 185.51180465 82.19970703 175.60498047 C75.53467199 171.92627469 69.03453671 168.61712381 61.41357422 167.61914062 C61.41357422 166.95914063 61.41357422 166.29914063 61.41357422 165.61914062 C61.99236328 165.37035156 62.57115234 165.1215625 63.16748047 164.86523438 C71.64660061 160.16116598 76.07625749 150.616108 79.02294922 141.79492188 C81.28256142 129.20888193 79.43290109 116.74445264 72.66357422 105.86914062 C65.48829559 95.97405563 56.166399 88.00610409 43.78466797 85.86523438 C27.54107842 84.1793264 12.69441184 88.3963186 1.41357422 100.61914062 Z " fill="#37BDF8" transform="translate(284.58642578125,110.380859375)"/>
<path d="M0 0 C5.61334043 5.55923595 8.01605492 10.26347198 8.375 18.25 C8.22278651 24.83099487 6.76407196 30.75700468 2.421875 35.8515625 C-3.95920414 41.68651324 -10.43931616 43.60715305 -19.00390625 43.33984375 C-26.80524028 42.45494667 -31.56325189 39.06561127 -36.58984375 33.1953125 C-40.77083298 26.68640407 -40.82600695 19.47799908 -40 12 C-38.05370473 5.09348621 -34.56786565 0.71763813 -28.3828125 -2.875 C-18.94037001 -7.33307121 -8.18113426 -7.03958064 0 0 Z " fill="#37BCF8" transform="translate(336,222)"/>
</svg>
